# xmcd
#
# Track frame offsets: 
#        150
#        17795
#        33722
#        52360
#        69932
#        84420
#        103097
#        121740
#        141142
#        159402
#        171817
#        189212
#
# Disc length: 2770 seconds
#
# Revision: 3
# Processed by: cddbd v1.5.2PL0 Copyright (c) Steve Scherf et al.
# Submitted via: ExactAudioCopy v0.95b4
#
DISCID=9c0ad00c
DTITLE=Pantelis Thalassinos - Ena Krimmeno "Ach"
DYEAR=1998
DGENRE=Ethnic
TTITLE0=Se Pente Mavres Thalasses
TTITLE1=Sti Serifo Isoun Pouli
TTITLE2=Pes Mou Afta Pou Agapas
TTITLE3=Karavia Eimaste
TTITLE4=I Esarpa
TTITLE5=Mi Me Xypnas Pou S' Agapo
TTITLE6=Aspro Kaiki Sti Nea Peramo
TTITLE7=Nea Liosia
TTITLE8=Nerenia
TTITLE9=Anathema Se
TTITLE10=Ti Mera Pou Eroteftike O Ilios
TTITLE11=Ena Krimmeno "Ach"
EXTD=
EXTT0=
EXTT1=
EXTT2=
EXTT3=
EXTT4=
EXTT5=
EXTT6=
EXTT7=
EXTT8=
EXTT9=
EXTT10=
EXTT11=
PLAYORDER=
